<svg width="1382" height="1053" viewBox="0 0 1382 1053" fill="none" xmlns="http://www.w3.org/2000/svg">
<path d="M1280.1 355.648C1279.35 348.271 1278.29 340.839 1276.94 333.557L1273.37 334.214C1274.71 341.398 1275.75 348.73 1276.49 356.008L1280.1 355.648ZM1271.97 311.802C1270.02 304.654 1267.74 297.498 1265.21 290.533L1261.79 291.771C1264.3 298.642 1266.54 305.701 1268.47 312.753L1271.97 311.802ZM1256.71 269.897C1253.61 263.178 1250.19 256.495 1246.54 250.031L1243.38 251.812C1246.98 258.189 1250.35 264.784 1253.41 271.412L1256.71 269.897ZM1231.78 233.085L1234.79 231.055C1230.63 224.907 1226.17 218.865 1221.54 213.098L1218.71 215.368C1223.28 221.058 1227.68 227.019 1231.78 233.085ZM1204.23 198.78L1206.87 196.285C1201.77 190.907 1196.38 185.676 1190.85 180.739L1188.44 183.444C1193.89 188.314 1199.2 193.475 1204.23 198.78L1204.23 198.78ZM1171.42 169.468L1173.6 166.572C1167.68 162.107 1161.5 157.835 1155.23 153.874L1153.29 156.941C1159.48 160.849 1165.58 165.063 1171.42 169.468L1171.42 169.468ZM747.366 428.432C746.111 421.239 745.143 413.898 744.486 406.612L740.872 406.934C741.537 414.319 742.519 421.76 743.79 429.051L747.366 428.432ZM1134.2 145.956L1135.87 142.74C1129.3 139.314 1122.51 136.118 1115.67 133.24L1114.26 136.584C1121.01 139.424 1127.72 142.577 1134.2 145.956ZM743.417 384.629C743.364 377.324 743.614 369.924 744.162 362.636L740.542 362.36C739.988 369.748 739.735 377.248 739.789 384.651L743.417 384.629ZM1093.63 128.881L1094.76 125.432C1087.71 123.126 1080.49 121.085 1073.28 119.364L1072.44 122.892C1079.55 124.591 1086.68 126.605 1093.63 128.881ZM746.706 340.777C747.848 333.557 749.303 326.298 751.032 319.2L747.506 318.338C745.754 325.531 744.279 332.889 743.121 340.206L746.706 340.777ZM1050.83 118.658L1051.38 115.072C1044.06 113.946 1036.6 113.109 1029.21 112.586L1028.96 116.206C1036.25 116.722 1043.61 117.547 1050.83 118.658ZM757.11 298.051C759.415 291.116 762.036 284.192 764.901 277.472L761.562 276.045C758.659 282.857 756.002 289.873 753.665 296.902L757.11 298.051ZM1006.96 115.555L1006.92 111.927C999.506 112.013 992.014 112.409 984.649 113.104L984.994 116.716C992.26 116.03 999.652 115.64 1006.96 115.555ZM774.358 257.605C777.773 251.134 781.496 244.735 785.423 238.586L782.363 236.63C778.383 242.863 774.61 249.349 771.148 255.908L774.358 257.605ZM963.202 119.686L962.56 116.114C955.271 117.417 947.951 119.04 940.802 120.941L941.739 124.447C948.79 122.573 956.012 120.971 963.202 119.686ZM798.023 220.548C802.45 214.741 807.179 209.046 812.078 203.621L809.383 201.188C804.418 206.686 799.624 212.459 795.136 218.347L798.023 220.548ZM920.731 130.977L919.507 127.56C912.542 130.045 905.588 132.858 898.837 135.918L900.339 139.224C906.999 136.205 913.859 133.43 920.731 130.977ZM827.49 187.92C832.807 182.934 838.41 178.099 844.144 173.552L841.886 170.708C836.075 175.318 830.395 180.218 825.006 185.272L827.49 187.92ZM880.697 149.124L878.93 145.952C872.47 149.546 866.051 153.471 859.904 157.577L861.923 160.596C867.992 156.539 874.323 152.671 880.697 149.124Z" fill="#3F3D56"/>
<path d="M125.667 629.526C124.555 636.854 123.737 644.315 123.237 651.701L126.857 651.952C127.352 644.665 128.158 637.304 129.255 630.074L125.667 629.526ZM122.654 674.004C122.768 681.41 123.196 688.905 123.923 696.28L127.535 695.928C126.817 688.652 126.395 681.259 126.283 673.953L122.654 674.004ZM127.033 718.375C128.366 725.65 130.02 732.971 131.95 740.137L135.455 739.197C133.55 732.127 131.918 724.903 130.603 717.725L127.033 718.375ZM142.04 760.212L138.624 761.432C141.128 768.419 143.946 775.376 146.999 782.11L150.305 780.615C147.292 773.97 144.511 767.106 142.04 760.212ZM160.212 800.274L157.042 802.036C160.648 808.511 164.569 814.914 168.696 821.067L171.71 819.048C167.637 812.978 163.769 806.661 160.212 800.274ZM184.725 836.808L181.89 839.07C186.517 844.863 191.446 850.536 196.54 855.93L199.177 853.44C194.151 848.118 189.289 842.523 184.725 836.808ZM659.939 691.342C659.368 698.619 658.483 705.969 657.309 713.187L660.892 713.773C662.081 706.456 662.978 699.007 663.557 691.63L659.939 691.342ZM214.953 868.82L212.53 871.518C218.045 876.467 223.837 881.25 229.748 885.735L231.939 882.846C226.108 878.42 220.393 873.701 214.953 868.82ZM652.885 734.74C651.122 741.828 649.041 748.931 646.701 755.853L650.14 757.019C652.511 750.003 654.62 742.803 656.406 735.62L652.885 734.74ZM250.019 895.429L248.071 898.49C254.325 902.472 260.818 906.243 267.374 909.7L269.064 906.491C262.596 903.08 256.188 899.359 250.019 895.429ZM638.806 776.388C635.906 783.097 632.693 789.765 629.255 796.21L632.458 797.92C635.941 791.389 639.199 784.631 642.138 777.833L638.806 776.388ZM288.947 915.957L287.526 919.294C294.341 922.203 301.361 924.865 308.392 927.207L309.535 923.764C302.598 921.453 295.672 918.827 288.947 915.957ZM618.113 815.18C614.157 821.324 609.896 827.378 605.451 833.173L608.332 835.384C612.838 829.509 617.155 823.375 621.165 817.148L618.113 815.18ZM330.686 929.857L329.83 933.381C337.032 935.139 344.39 936.616 351.699 937.772L352.262 934.188C345.051 933.048 337.792 931.59 330.686 929.857ZM591.354 850.064C586.437 855.482 581.241 860.754 575.909 865.733L578.388 868.387C583.792 863.34 589.059 857.996 594.043 852.505L591.354 850.064ZM374.116 936.724L373.85 940.343C381.236 940.891 388.732 941.137 396.131 941.072L396.095 937.444C388.796 937.507 381.401 937.266 374.115 936.724L374.116 936.724ZM559.219 880.072C553.487 884.596 547.49 888.937 541.396 892.973L543.403 895.998C549.58 891.908 555.658 887.508 561.47 882.921L559.219 880.072ZM418.072 936.338L418.409 939.951C425.775 939.273 433.213 938.276 440.514 936.989L439.88 933.416C432.676 934.685 425.34 935.668 418.072 936.338ZM522.563 904.35C516.172 907.858 509.542 911.149 502.856 914.129L504.338 917.444C511.113 914.422 517.834 911.088 524.312 907.532L522.563 904.35ZM461.37 928.707L462.295 932.217C469.447 930.341 476.641 928.134 483.618 925.684L482.412 922.26C475.523 924.681 468.428 926.854 461.37 928.707Z" fill="#3F3D56"/>
<g clip-path="url(#clip0)">
<path d="M1369.3 923.883C1365.65 930.676 1174.13 930.106 1174.42 923.882C1178.06 917.09 1369.59 917.66 1369.3 923.883Z" fill="#D0CDE1"/>
<path d="M1322.7 777.996H1290.55V805.822H1322.7V777.996Z" fill="#2F2E41"/>
<path d="M1273.8 785.83H1181.68V862.285H1273.8V785.83Z" fill="#3F3D56"/>
<path d="M1246.11 798.528H1209.37V803.121H1246.11V798.528Z" fill="white"/>
<path d="M1219.77 809.334H1194.24V812.036H1219.77V809.334Z" fill="white"/>
<path d="M1240.3 827.164H1214.77V829.866H1240.3V827.164Z" fill="white"/>
<path d="M1260.83 809.334H1235.3V812.036H1260.83V809.334Z" fill="#FFB703"/>
<path d="M1318.11 793.665H1294.87V794.916H1318.11V793.665Z" fill="#FFB703"/>
<path d="M1317.84 796.417H1294.6V797.667H1317.84V796.417Z" fill="#FFB703"/>
<path d="M1318.11 799.168H1294.87V800.419H1318.11V799.168Z" fill="#FFB703"/>
<path d="M1318.11 784.479H1294.87V785.73H1318.11V784.479Z" fill="#FFB703"/>
<path d="M1317.84 787.231H1294.6V788.482H1317.84V787.231Z" fill="#FFB703"/>
<path d="M1318.11 789.983H1294.87V791.234H1318.11V789.983Z" fill="#FFB703"/>
<path d="M1331.88 787.181H1299.74V815.007H1331.88V787.181Z" fill="#3F3D56"/>
<path d="M1327.29 802.85H1304.06V804.101H1327.29V802.85Z" fill="#FFB703"/>
<path d="M1327.02 805.602H1303.79V806.853H1327.02V805.602Z" fill="#FFB703"/>
<path d="M1327.29 808.354H1304.06V809.604H1327.29V808.354Z" fill="#FFB703"/>
<path d="M1327.29 793.665H1304.06V794.916H1327.29V793.665Z" fill="#FFB703"/>
<path d="M1327.02 796.417H1303.79V797.667H1327.02V796.417Z" fill="#FFB703"/>
<path d="M1327.29 799.168H1304.06V800.419H1327.29V799.168Z" fill="#FFB703"/>
<path d="M1141.15 797.988H1109V825.814H1141.15V797.988Z" fill="#3F3D56"/>
<path d="M1136.56 813.657H1113.33V814.907H1136.56V813.657Z" fill="#FFB703"/>
<path d="M1136.29 816.408H1113.06V817.659H1136.29V816.408Z" fill="#FFB703"/>
<path d="M1136.56 819.16H1113.33V820.411H1136.56V819.16Z" fill="#FFB703"/>
<path d="M1136.56 804.471H1113.33V805.722H1136.56V804.471Z" fill="#FFB703"/>
<path d="M1136.29 807.223H1113.06V808.474H1136.29V807.223Z" fill="#FFB703"/>
<path d="M1136.56 809.975H1113.33V811.225H1136.56V809.975Z" fill="#FFB703"/>
<path d="M1261.24 818.249H1194.24V820.951H1261.24V818.249Z" fill="white"/>
<path d="M1209.23 827.164H1194.24V829.866H1209.23V827.164Z" fill="#FFB703"/>
<path d="M1209.23 844.995H1194.24V847.697H1209.23V844.995Z" fill="white"/>
<path d="M1260.83 827.164H1245.84V829.866H1260.83V827.164Z" fill="white"/>
<path d="M1261.24 836.08H1194.24V838.781H1261.24V836.08Z" fill="white"/>
<path d="M1261.24 844.995H1221.93V847.697H1261.24V844.995Z" fill="white"/>
<path d="M1254.83 810.849L1254.4 810.521L1283.66 772.322H1312.7V772.863H1283.93L1254.83 810.849Z" fill="#2F2E41"/>
<path d="M1195.82 828.72L1152.94 792.044H1124.13V791.504H1153.14L1196.17 828.31L1195.82 828.72Z" fill="#2F2E41"/>
<path d="M1312.7 776.645C1315.09 776.645 1317.03 774.71 1317.03 772.323C1317.03 769.935 1315.09 768 1312.7 768C1310.32 768 1308.38 769.935 1308.38 772.323C1308.38 774.71 1310.32 776.645 1312.7 776.645Z" fill="#FFB703"/>
<path d="M1124.13 796.096C1126.52 796.096 1128.46 794.161 1128.46 791.774C1128.46 789.387 1126.52 787.451 1124.13 787.451C1121.75 787.451 1119.81 789.387 1119.81 791.774C1119.81 794.161 1121.75 796.096 1124.13 796.096Z" fill="#FFB703"/>
<path d="M1350.47 919.311C1350.47 919.311 1356.77 898.103 1332.8 886.029L1350.47 919.311Z" fill="#D0CDE1"/>
<path d="M1351.26 919.425C1351.26 919.425 1353.76 898.493 1381.67 897.181L1351.26 919.425Z" fill="#D0CDE1"/>
<path d="M1244.16 916.075L1237.64 915.641L1239.81 925.414L1247.2 922.373L1244.16 916.075Z" fill="#FFB9B9"/>
<path d="M1303.88 897.831L1288.68 883.063L1279.99 889.796L1262.83 910.428L1264.79 913.469L1285.64 899.352L1299.75 917.813L1313.22 911.08L1303.88 897.831Z" fill="#2F2E41"/>
<path opacity="0.1" d="M1303.88 897.831L1288.68 883.063L1279.99 889.796L1262.83 910.428L1264.79 913.469L1285.64 899.352L1299.75 917.813L1313.22 911.08L1303.88 897.831Z" fill="black"/>
<path d="M1305.18 907.605L1303.23 909.125L1287.38 903.695L1283.68 902.175L1276.3 903.695C1276.3 903.695 1276.3 897.614 1283.25 897.831L1290.42 899.569L1298.89 900.22L1305.18 907.605Z" fill="#FFB9B9"/>
<path d="M1319.3 923.676L1314.52 926.717H1308.88L1282.6 916.943L1244.16 923.893L1243.07 915.64L1278.25 900.22L1309.09 910.428L1319.3 923.676Z" fill="#2F2E41"/>
<path d="M1288.46 885.018L1285.2 885.669L1284.49 884.841C1283.93 884.185 1283.58 883.378 1283.47 882.521C1283.36 881.664 1283.51 880.795 1283.9 880.022L1293.02 868.077C1293.02 868.077 1295.63 862.213 1299.76 864.602C1303.88 866.991 1296.28 870.901 1296.28 870.901L1291.72 878.068L1292.15 881.76L1288.46 885.018Z" fill="#FFB9B9"/>
<path d="M1309.09 870.9C1313.77 870.9 1317.56 867.108 1317.56 862.43C1317.56 857.752 1313.77 853.96 1309.09 853.96C1304.42 853.96 1300.62 857.752 1300.62 862.43C1300.62 867.108 1304.42 870.9 1309.09 870.9Z" fill="#FFB9B9"/>
<path d="M1305.29 868.62L1309.2 877.959L1318.54 874.05C1318.54 874.05 1315.5 866.665 1315.5 866.448C1315.5 866.231 1305.29 868.62 1305.29 868.62Z" fill="#FFB9B9"/>
<path d="M1331.01 896.248C1331.01 901.36 1330.2 906.44 1328.62 911.301L1327.99 913.251L1324.95 927.151L1321.69 928.02L1319.3 924.979L1314.52 921.505L1311.05 915.858L1308.07 910.893L1307.14 909.342L1303.88 893.053L1291.5 886.103L1287.38 885.452L1288.24 883.063L1291.94 878.067L1295.63 877.633L1296.71 876.764L1297.58 877.199L1301.06 875.244L1302.14 875.678L1308.49 876.269L1312.35 875.461L1317.9 872.484L1320.17 872.855L1327.99 879.371C1329.99 884.773 1331.01 890.488 1331.01 896.248Z" fill="#575A89"/>
<path d="M1239.64 919.438C1239.64 919.438 1241.59 916.141 1240.76 915.756C1239.94 915.371 1236.45 913.837 1236.45 913.837L1231.34 912.141C1231.34 912.141 1223.95 901.167 1223.79 910.71C1223.63 920.253 1229.17 922.547 1229.17 922.547C1229.17 922.547 1234.11 933.177 1236.9 931.482C1239.7 929.787 1242.5 924.033 1242.5 924.033C1242.5 924.033 1237.46 921.32 1239.64 919.438Z" fill="#2F2E41"/>
<path opacity="0.1" d="M1328.64 894.357L1320.39 899.786L1308.07 910.893L1307.14 909.342L1304.53 896.311H1305.18L1311.92 883.932L1328.64 894.357Z" fill="black"/>
<path d="M1311.92 882.628L1305.18 895.008H1302.8L1301.28 899.352L1297.8 900.22L1307.14 910.428L1320.39 898.483L1328.64 893.053L1311.92 882.628Z" fill="#575A89"/>
<path d="M1302.51 856.132L1301.59 856.485C1301.45 856.39 1301.33 856.267 1301.23 856.124C1301.14 855.981 1301.08 855.821 1301.05 855.654C1301.02 855.486 1301.02 855.314 1301.06 855.147C1301.09 854.981 1301.16 854.824 1301.26 854.684L1299.56 854.605C1300.65 853.155 1302.04 851.953 1303.63 851.078C1305.21 850.203 1306.97 849.675 1308.78 849.529C1310.58 849.384 1312.4 849.624 1314.11 850.233C1315.82 850.842 1317.38 851.807 1318.68 853.064C1318.76 852.798 1319.6 853.316 1319.95 853.84C1320.06 853.407 1320.85 855.499 1321.13 856.978C1321.26 856.486 1321.76 857.28 1321.32 858.043C1321.6 858.003 1321.72 858.708 1321.51 859.102C1321.81 858.96 1321.76 859.802 1321.43 860.365C1321.86 860.327 1318.04 866.266 1316.49 869.736C1316.04 867.669 1315.53 865.493 1314.08 863.953C1313.83 863.691 1313.56 863.453 1313.29 863.215L1311.84 861.928C1310.14 860.432 1308.6 858.585 1306.34 858.025C1304.79 857.641 1303.81 857.554 1304.65 855.805C1303.89 856.124 1303.17 856.598 1302.4 856.895C1302.41 856.65 1302.52 856.377 1302.51 856.132Z" fill="#2F2E41"/>
<path d="M1313.33 864.928C1314.17 864.928 1314.85 864.247 1314.85 863.408C1314.85 862.568 1314.17 861.887 1313.33 861.887C1312.49 861.887 1311.81 862.568 1311.81 863.408C1311.81 864.247 1312.49 864.928 1313.33 864.928Z" fill="#FFB9B9"/>
</g>
<path d="M35.8395 609.337H219.531V535.273H66.7354L35.8395 609.337Z" fill="#EFEFEF"/>
<path d="M35 609.898H242V519.001H72.5385L72.3953 519.348L35 609.898ZM240.877 608.775H36.6786L73.2906 520.123H240.877V608.775Z" fill="#3F3D56"/>
<path d="M97.6316 547.055H189.196V555.472H97.6316V547.055Z" fill="#8A178C"/>
<path d="M97.6316 564.449H189.196V572.866H97.6316V564.449Z" fill="#8A178C"/>
<path d="M97.6316 581.843H189.196V590.26H97.6316V581.843Z" fill="#8A178C"/>
<path d="M1262.94 416.164C1258.42 416.164 1254.76 412.507 1254.76 407.996C1254.76 403.485 1258.42 399.829 1262.94 399.829C1267.45 399.829 1271.11 403.485 1271.11 407.996C1271.11 412.507 1267.45 416.164 1262.94 416.164Z" fill="#3F3D56"/>
<path d="M1318.01 430.431L1300.09 412.525L1283.86 428.731L1253.08 397.982L1227.82 423.687V448.91H1318.01V430.431Z" fill="#8A178C"/>
<path d="M1186.97 460.443H1331V373.001H1219.07L1218.95 373.316L1186.97 460.443ZM1330.04 459.482H1188.35L1219.74 373.962H1330.04V459.482Z" fill="#3F3D56"/>
<path d="M1227.58 449.392H1318.49V381.648H1227.58V449.392ZM1317.53 448.431H1228.54V382.609H1317.53V448.431Z" fill="#3F3D56"/>
<path d="M1187.66 468.609C1182.88 468.609 1179 464.737 1179 459.961C1179 455.184 1182.88 451.312 1187.66 451.312C1192.44 451.312 1196.32 455.184 1196.32 459.961C1196.32 464.737 1192.44 468.609 1187.66 468.609Z" fill="#8A178C"/>
<g clip-path="url(#clip1)">
<path d="M248.572 218.168C246.356 224.701 243.6 231.039 240.333 237.115C240.153 237.448 239.97 237.781 239.787 238.114V170.712C239.97 170.155 240.153 169.601 240.333 169.044C247.679 146.502 253.136 125.63 251.331 117.671C251.861 119.674 264.928 170.272 248.572 218.168Z" fill="#E6E6E6"/>
<path d="M273 186.402C272.798 187.669 266.544 224.889 240.333 246.986C240.153 247.141 239.97 247.292 239.787 247.442V227.329C239.968 227.144 240.15 226.958 240.333 226.77C243.019 224.013 245.806 221.111 248.572 218.168C260.427 205.538 271.853 192.159 273 186.402Z" fill="#E6E6E6"/>
<path d="M30.4365 300.731C47.246 300.731 60.8729 299.509 60.8729 298.002C60.8729 296.494 47.246 295.272 30.4365 295.272C13.6269 295.272 0 296.494 0 298.002C0 299.509 13.6269 300.731 30.4365 300.731Z" fill="#E6E6E6"/>
<path d="M238.695 150.324H66.2996C66.0845 150.324 65.8715 150.366 65.6727 150.448C65.474 150.531 65.2934 150.651 65.1413 150.803C64.9892 150.955 64.8686 151.136 64.7863 151.335C64.704 151.533 64.6617 151.746 64.6617 151.962V247.502C64.6617 247.717 64.704 247.93 64.7863 248.129C64.8686 248.328 64.9892 248.508 65.1413 248.66C65.2934 248.812 65.474 248.933 65.6727 249.015C65.8715 249.098 66.0845 249.14 66.2996 249.14H238.695C238.911 249.14 239.124 249.098 239.322 249.015C239.521 248.933 239.702 248.812 239.854 248.66C240.006 248.508 240.126 248.328 240.209 248.129C240.291 247.93 240.333 247.717 240.333 247.502V151.962C240.333 151.746 240.291 151.533 240.209 151.335C240.126 151.136 240.006 150.955 239.854 150.803C239.702 150.651 239.521 150.531 239.322 150.448C239.124 150.366 238.911 150.324 238.695 150.324V150.324ZM239.787 247.502C239.787 247.645 239.759 247.787 239.704 247.92C239.649 248.052 239.569 248.173 239.468 248.274C239.366 248.376 239.246 248.456 239.113 248.511C238.981 248.566 238.839 248.594 238.695 248.594H66.2996C66.1562 248.594 66.0142 248.566 65.8817 248.511C65.7492 248.456 65.6288 248.376 65.5274 248.274C65.426 248.173 65.3456 248.052 65.2907 247.92C65.2359 247.787 65.2076 247.645 65.2077 247.502V151.962C65.2076 151.818 65.2359 151.676 65.2907 151.544C65.3456 151.411 65.426 151.291 65.5274 151.189C65.6288 151.088 65.7492 151.008 65.8817 150.953C66.0142 150.898 66.1562 150.87 66.2996 150.87H238.695C238.839 150.87 238.981 150.898 239.113 150.953C239.246 151.008 239.366 151.088 239.468 151.189C239.569 151.291 239.649 151.411 239.704 151.544C239.759 151.676 239.787 151.818 239.787 151.962V247.502Z" fill="#E6E6E6"/>
<path d="M82.1348 150.324H81.5889V249.14H82.1348V150.324Z" fill="#E6E6E6"/>
<path d="M68.4319 158.84C68.4319 157.833 68.7305 156.848 69.2901 156.011C69.8496 155.174 70.6449 154.521 71.5753 154.135C72.5058 153.75 73.5297 153.649 74.5174 153.846C75.5052 154.042 76.4125 154.527 77.1247 155.239C77.8368 155.951 78.3218 156.859 78.5183 157.847C78.7148 158.834 78.6139 159.858 78.2285 160.789C77.8431 161.719 77.1904 162.514 76.353 163.074C75.5156 163.633 74.5311 163.932 73.524 163.932C72.174 163.931 70.8796 163.394 69.925 162.439C68.9704 161.484 68.4334 160.19 68.4319 158.84V158.84Z" fill="#FFB703"/>
<path d="M68.4319 178.767C68.4319 177.76 68.7305 176.775 69.2901 175.938C69.8496 175.1 70.6449 174.448 71.5753 174.062C72.5058 173.677 73.5297 173.576 74.5174 173.773C75.5052 173.969 76.4125 174.454 77.1247 175.166C77.8368 175.878 78.3218 176.786 78.5183 177.773C78.7148 178.761 78.6139 179.785 78.2285 180.715C77.8431 181.646 77.1904 182.441 76.353 183.001C75.5156 183.56 74.5311 183.859 73.524 183.859C72.174 183.857 70.8796 183.32 69.925 182.366C68.9704 181.411 68.4334 180.117 68.4319 178.767V178.767Z" fill="#FFB703"/>
<path d="M68.4319 198.694C68.4319 197.687 68.7305 196.702 69.2901 195.865C69.8496 195.027 70.6449 194.375 71.5753 193.989C72.5058 193.604 73.5297 193.503 74.5174 193.699C75.5052 193.896 76.4125 194.381 77.1247 195.093C77.8368 195.805 78.3218 196.712 78.5183 197.7C78.7148 198.688 78.6139 199.712 78.2285 200.642C77.8431 201.573 77.1904 202.368 76.353 202.928C75.5156 203.487 74.5311 203.786 73.524 203.786C72.174 203.784 70.8796 203.247 69.925 202.293C68.9704 201.338 68.4334 200.044 68.4319 198.694V198.694Z" fill="#FFB703"/>
<path d="M71.5146 158.337H73.0215V156.831C73.0214 156.764 73.0343 156.699 73.0594 156.638C73.0846 156.577 73.1216 156.521 73.1683 156.475C73.2149 156.428 73.2703 156.391 73.3314 156.365C73.3924 156.34 73.4578 156.327 73.5239 156.327C73.5899 156.327 73.6553 156.34 73.7164 156.365C73.7774 156.391 73.8328 156.428 73.8795 156.475C73.9261 156.521 73.9631 156.577 73.9883 156.638C74.0134 156.699 74.0263 156.764 74.0262 156.831V158.337H75.5331C75.6663 158.337 75.7941 158.39 75.8883 158.485C75.9825 158.579 76.0354 158.707 76.0354 158.84C76.0354 158.973 75.9825 159.101 75.8883 159.195C75.7941 159.289 75.6663 159.342 75.5331 159.342H74.0262V160.849C74.0259 160.982 73.9728 161.109 73.8786 161.203C73.7845 161.297 73.6569 161.35 73.5239 161.35C73.3908 161.35 73.2632 161.297 73.1691 161.203C73.0749 161.109 73.0219 160.982 73.0215 160.849V159.342H71.5146C71.4487 159.342 71.3834 159.329 71.3224 159.304C71.2615 159.279 71.2061 159.242 71.1595 159.195C71.1128 159.148 71.0758 159.093 71.0506 159.032C71.0253 158.971 71.0123 158.906 71.0123 158.84C71.0123 158.774 71.0253 158.708 71.0506 158.648C71.0758 158.587 71.1128 158.531 71.1595 158.485C71.2061 158.438 71.2615 158.401 71.3224 158.376C71.3834 158.35 71.4487 158.337 71.5146 158.337V158.337Z" fill="white"/>
<path d="M72.5714 180.186H76.8345C76.8399 180.186 76.8452 180.185 76.8505 180.184L74.8342 176.692C74.8219 176.67 74.804 176.652 74.7825 176.639C74.7609 176.627 74.7363 176.62 74.7113 176.62C74.6864 176.62 74.6618 176.627 74.6402 176.639C74.6186 176.652 74.6008 176.67 74.5885 176.692L73.2353 179.036L73.1705 179.148L72.5714 180.186Z" fill="white"/>
<path opacity="0.2" d="M72.5715 180.186H74.027L73.3124 179.148L73.2611 179.073L73.2354 179.036L73.1704 179.148L72.5715 180.186Z" fill="black"/>
<path d="M70.1976 180.186H73.8849L73.1704 179.148L73.119 179.073L72.1879 177.721C72.1714 177.7 72.1508 177.683 72.1273 177.671C72.1039 177.659 72.0781 177.651 72.0518 177.65C72.0254 177.648 71.999 177.652 71.9743 177.662C71.9495 177.671 71.927 177.685 71.9082 177.704C71.9034 177.709 71.8989 177.715 71.8948 177.721L70.1976 180.186Z" fill="white"/>
<path d="M72.9766 177.519C73.3254 177.519 73.6082 177.236 73.6082 176.888C73.6082 176.539 73.3254 176.256 72.9766 176.256C72.6278 176.256 72.3451 176.539 72.3451 176.888C72.3451 177.236 72.6278 177.519 72.9766 177.519Z" fill="white"/>
<path d="M162.098 163.382L100.765 213.641L101.083 214.028L162.416 163.77L162.098 163.382Z" fill="#E6E6E6"/>
<path d="M101.091 163.373L100.772 163.76L162.09 214.288L162.408 213.901L101.091 163.373Z" fill="#E6E6E6"/>
<path d="M161.349 162.683H101.673C101.208 162.684 100.761 162.869 100.432 163.198C100.103 163.527 99.9183 163.973 99.9177 164.439V212.832C99.9183 213.297 100.103 213.743 100.432 214.072C100.761 214.401 101.208 214.586 101.673 214.587H161.349C161.815 214.586 162.261 214.401 162.59 214.072C162.919 213.743 163.104 213.297 163.104 212.832V164.439C163.104 163.973 162.919 163.527 162.59 163.198C162.261 162.869 161.815 162.684 161.349 162.683V162.683ZM101.673 214.085C101.341 214.085 101.022 213.953 100.787 213.718C100.552 213.483 100.42 213.164 100.419 212.832V164.439C100.42 164.106 100.552 163.787 100.787 163.552C101.022 163.317 101.341 163.185 101.673 163.185H161.349C161.682 163.185 162 163.317 162.235 163.552C162.47 163.787 162.603 164.106 162.603 164.439V212.832C162.603 213.164 162.47 213.483 162.235 213.718C162 213.953 161.682 214.085 161.349 214.085H101.673Z" fill="#E6E6E6"/>
<path d="M172.85 189.944C172.337 189.955 171.927 190.512 171.936 191.187C171.944 191.846 172.349 192.378 172.85 192.389H221.151C221.665 192.4 222.088 191.862 222.096 191.187C222.105 190.512 221.695 189.955 221.182 189.944C221.172 189.944 221.162 189.944 221.151 189.944H172.85Z" fill="#E6E6E6"/>
<path d="M172.85 182.862C172.337 182.873 171.927 183.43 171.936 184.105C171.944 184.764 172.349 185.296 172.85 185.307H199.032C199.546 185.318 199.969 184.78 199.977 184.105C199.986 183.43 199.576 182.873 199.063 182.862C199.053 182.862 199.043 182.862 199.032 182.862H172.85Z" fill="#FFB703"/>
<path d="M172.85 197.363C172.337 197.374 171.927 197.931 171.936 198.606C171.944 199.265 172.349 199.797 172.85 199.808H221.151C221.665 199.819 222.088 199.281 222.096 198.606C222.105 197.931 221.695 197.374 221.182 197.363C221.172 197.363 221.162 197.363 221.151 197.363H172.85Z" fill="#E6E6E6"/>
<path d="M172.85 204.663C172.337 204.674 171.927 205.23 171.936 205.905C171.944 206.565 172.349 207.097 172.85 207.107H221.151C221.665 207.118 222.088 206.58 222.096 205.905C222.105 205.23 221.695 204.674 221.182 204.663C221.172 204.663 221.162 204.663 221.151 204.663H172.85Z" fill="#E6E6E6"/>
<path d="M172.85 212.082C172.337 212.093 171.927 212.649 171.936 213.324C171.944 213.984 172.349 214.516 172.85 214.527H221.151C221.665 214.538 222.088 213.999 222.096 213.324C222.105 212.649 221.695 212.093 221.182 212.082C221.172 212.082 221.162 212.082 221.151 212.082H172.85Z" fill="#E6E6E6"/>
<path d="M100.037 219.617C99.5233 219.628 99.114 220.184 99.1224 220.859C99.1307 221.518 99.5352 222.05 100.037 222.061H221.495C222.008 222.072 222.431 221.534 222.439 220.859C222.448 220.184 222.038 219.628 221.525 219.617C221.515 219.616 221.505 219.616 221.495 219.617H100.037Z" fill="#E6E6E6"/>
<path d="M100.037 227.036C99.5233 227.047 99.114 227.603 99.1224 228.278C99.1307 228.938 99.5352 229.47 100.037 229.48H221.495C222.008 229.491 222.431 228.953 222.439 228.278C222.448 227.603 222.038 227.047 221.525 227.036C221.515 227.036 221.505 227.036 221.495 227.036H100.037Z" fill="#E6E6E6"/>
<path d="M100.037 234.335C99.5233 234.346 99.114 234.903 99.1224 235.578C99.1307 236.237 99.5352 236.769 100.037 236.78H221.495C222.008 236.791 222.431 236.253 222.439 235.578C222.448 234.903 222.038 234.346 221.525 234.335C221.515 234.335 221.505 234.335 221.495 234.335H100.037Z" fill="#E6E6E6"/>
<path d="M49.0117 290.061L41.67 289.83L31.1189 245.864L13.1219 288.934L4.9032 288.675C12.7166 255.137 20.5781 220.981 26.5222 211.504L43.0282 216.282L49.0117 290.061Z" fill="#2F2E41"/>
<path d="M17.1358 299.149L16.6263 299.19C16.1123 299.231 15.5959 299.151 15.1184 298.957L5.22996 297.785C4.81249 297.615 4.43278 297.365 4.11274 297.047C3.79271 296.73 3.53868 296.353 3.36531 295.937C3.19194 295.521 3.10268 295.074 3.10266 294.624C3.10264 294.173 3.19188 293.727 3.36522 293.311L5.50524 288.175H12.4333L19.59 293.979C19.9198 294.456 20.1181 295.012 20.1648 295.59C20.2116 296.168 20.1053 296.749 19.8565 297.273C19.6077 297.797 19.2252 298.246 18.7476 298.576C18.27 298.905 17.7141 299.103 17.1358 299.149V299.149Z" fill="#2F2E41"/>
<path d="M53.4412 299.149L52.9317 299.19C52.4178 299.231 51.9014 299.151 51.4238 298.957L41.5354 297.785C41.1179 297.615 40.7382 297.365 40.4182 297.047C40.0981 296.73 39.8441 296.353 39.6707 295.937C39.4974 295.521 39.4081 295.074 39.4081 294.624C39.4081 294.173 39.4973 293.727 39.6706 293.311L41.8107 288.175H48.7387L55.8955 293.979C56.2252 294.456 56.4235 295.012 56.4703 295.59C56.517 296.168 56.4107 296.749 56.1619 297.273C55.9131 297.797 55.5307 298.246 55.0531 298.576C54.5755 298.905 54.0195 299.103 53.4412 299.149V299.149Z" fill="#2F2E41"/>
<path d="M47.7403 205.261L34.767 196.71L40.7638 193.079L49.2558 198.334L63.0695 200.398L65.1695 198.316C65.5156 197.973 65.9341 197.712 66.3943 197.552C66.8545 197.392 67.3448 197.336 67.8291 197.39C68.3134 197.444 68.7795 197.606 69.1932 197.864C69.6068 198.121 69.9576 198.468 70.2197 198.879V198.879C70.5003 199.319 70.6713 199.819 70.7186 200.339C70.7658 200.859 70.6877 201.382 70.491 201.865C70.2943 202.348 69.9846 202.778 69.5879 203.116C69.1912 203.455 68.719 203.694 68.211 203.813L66.1386 204.297L47.7403 205.261Z" fill="#A0616A"/>
<path d="M34.8331 199.053C33.3843 196.055 30.8625 193.597 27.4363 191.593L34.1703 184.84C37.4108 186.667 40.2545 189.591 42.8973 193.069L34.8331 199.053Z" fill="#E6E6E6"/>
<path d="M34.5666 177.611C38.7098 177.611 42.0685 174.252 42.0685 170.109C42.0685 165.966 38.7098 162.607 34.5666 162.607C30.4235 162.607 27.0648 165.966 27.0648 170.109C27.0648 174.252 30.4235 177.611 34.5666 177.611Z" fill="#A0616A"/>
<path d="M38.3587 185.415L28.8026 183.026C29.6561 180.588 29.337 176.924 28.8026 173.036H38.3587C36.9672 177.574 36.571 181.926 38.3587 185.415Z" fill="#A0616A"/>
<path d="M43.5711 217.993L25.6534 213.893C23.759 200.689 23.3558 186.908 29.0198 182.158L37.9243 183.244L44.6365 191.853C45.1552 192.518 45.6001 193.237 45.9635 193.999C47.4067 197.022 47.1334 200.557 45.4752 203.467C42.9554 207.89 42.1858 212.702 43.5711 217.993Z" fill="#E6E6E6"/>
<path d="M26.2583 209.327L29.1808 194.066L34.8344 198.212L33.237 208.07L42.0543 218.824L44.7825 219.965C45.232 220.153 45.6338 220.44 45.9583 220.803C46.2828 221.167 46.5218 221.598 46.6577 222.066C46.7936 222.534 46.823 223.027 46.7437 223.508C46.6645 223.989 46.4785 224.445 46.1996 224.845C45.901 225.273 45.5041 225.623 45.0424 225.866C44.5806 226.109 44.0674 226.237 43.5456 226.241C43.0239 226.244 42.5089 226.123 42.0438 225.887C41.5787 225.65 41.1771 225.306 40.8725 224.882L39.6303 223.154L26.2583 209.327Z" fill="#A0616A"/>
<path d="M37.3082 191.04C36.0803 194.135 35.9753 197.656 36.8169 201.535L27.2887 201.143C26.4422 197.52 26.6717 193.448 27.4456 189.149L37.3082 191.04Z" fill="#E6E6E6"/>
<path d="M37.8158 161.851C37.8158 161.851 28.9113 156.856 24.5676 165.977C20.2239 175.099 21.527 183.135 21.527 183.135L29.78 182.918L31.7346 180.963L33.2549 182.701L33.278 182.663C35.4692 179.035 36.7257 174.919 36.9349 170.686C37.0041 169.528 37.4031 168.464 38.4673 167.932C41.5079 166.412 42.1595 166.412 42.1595 166.412C42.1595 166.412 43.8969 162.285 37.8158 161.851Z" fill="#2F2E41"/>
<path d="M75.5713 196.51H71.5059C71.373 196.507 71.2433 196.551 71.1395 196.634C71.0358 196.717 70.9645 196.834 70.9382 196.964C70.9249 197.043 70.9289 197.123 70.9498 197.2C70.9708 197.276 71.0082 197.347 71.0595 197.408C71.1107 197.469 71.1746 197.518 71.2467 197.551C71.3187 197.585 71.3972 197.602 71.4767 197.602H72.6863C72.7637 197.602 72.8379 197.633 72.8926 197.687C72.9473 197.742 72.9781 197.816 72.9781 197.894V200.302C72.9751 200.435 73.019 200.565 73.102 200.669C73.1851 200.773 73.302 200.844 73.4323 200.87C73.5106 200.883 73.5909 200.879 73.6676 200.858C73.7442 200.838 73.8154 200.8 73.8761 200.749C73.9368 200.698 73.9856 200.634 74.0191 200.562C74.0526 200.49 74.0699 200.411 74.0699 200.332V197.894C74.0699 197.816 74.1007 197.742 74.1554 197.687C74.2101 197.633 74.2843 197.602 74.3617 197.602H75.5421C75.675 197.605 75.8047 197.561 75.9085 197.478C76.0123 197.395 76.0835 197.278 76.1098 197.148C76.123 197.069 76.1191 196.989 76.0981 196.912C76.0772 196.836 76.0398 196.765 75.9885 196.704C75.9373 196.643 75.8734 196.594 75.8013 196.561C75.7292 196.527 75.6508 196.51 75.5713 196.51Z" fill="white"/>
<path d="M75.5713 200.878C75.8729 200.878 76.1173 200.633 76.1173 200.332C76.1173 200.03 75.8729 199.786 75.5713 199.786C75.2698 199.786 75.0254 200.03 75.0254 200.332C75.0254 200.633 75.2698 200.878 75.5713 200.878Z" fill="white"/>
</g>
<defs>
<clipPath id="clip0">
<rect width="272.669" height="163.665" fill="white" transform="translate(1109 768)"/>
</clipPath>
<clipPath id="clip1">
<rect width="273" height="183.061" fill="white" transform="translate(0 117.671)"/>
</clipPath>
</defs>
</svg>
