<svg width="48" height="48" viewBox="0 0 48 48" fill="none" xmlns="http://www.w3.org/2000/svg">
<path d="M39.75 43.5C39.5827 43.5 39.417 43.4437 39.2812 43.3357L33.6735 38.85C33.7162 39.0577 33.669 39.2745 33.5415 39.4463C33.4005 39.6375 33.177 39.75 32.9392 39.75H12.507C9.74625 39.75 7.5 37.5038 7.5 34.743V12.507C7.5 9.74625 9.74625 7.5 12.507 7.5H35.493C38.2538 7.5 40.5 9.74625 40.5 12.507V42.75C40.5 43.038 40.3342 43.3013 40.0755 43.4258C39.972 43.4753 39.8602 43.5 39.75 43.5ZM32.25 36C32.4165 36 32.5815 36.0555 32.7188 36.1643L39 41.1892V12.507C39 10.5735 37.4265 9 35.493 9H12.507C10.5735 9 9 10.5735 9 12.507V34.743C9 36.6765 10.5735 38.25 12.507 38.25H31.9253L31.5337 36.9697C31.437 36.6555 31.557 36.3143 31.83 36.1297C31.956 36.0427 32.1038 36 32.25 36Z" fill="url(#paint0_linear)"/>
<path d="M31.6357 17.8957C31.6357 17.8957 29.4517 16.2075 26.8643 16.014L26.6377 16.476C28.9732 17.0385 30.0397 17.8537 31.1572 18.8535C29.2335 17.871 27.327 16.854 24.0007 16.854C20.6745 16.854 18.7672 17.8702 16.8442 18.8535C17.9617 17.8537 19.2383 16.947 21.3638 16.476L21.1373 16.014C18.4238 16.2742 16.3657 17.8957 16.3657 17.8957C16.3657 17.8957 13.92 21.4155 13.5 28.2952C15.9697 31.1175 19.7078 31.1347 19.7078 31.1347L20.4802 30.1012C19.1617 29.6475 17.658 28.833 16.3643 27.3547C17.91 28.5142 20.2365 29.4547 24 29.4547C27.7635 29.4547 30.09 28.5142 31.6357 27.3547C30.342 28.833 28.8383 29.6482 27.5198 30.1012L28.2922 31.1347C28.2922 31.1347 32.0303 31.1182 34.5 28.2952C34.08 21.4155 31.6357 17.8957 31.6357 17.8957ZM21.06 26.934C20.136 26.934 19.38 25.9935 19.38 24.834C19.38 23.6745 20.136 22.734 21.06 22.734C21.984 22.734 22.74 23.6745 22.74 24.834C22.74 25.9935 21.984 26.934 21.06 26.934ZM26.94 26.934C26.016 26.934 25.26 25.9935 25.26 24.834C25.26 23.6745 26.016 22.734 26.94 22.734C27.864 22.734 28.62 23.6745 28.62 24.834C28.62 25.9935 27.864 26.934 26.94 26.934Z" fill="url(#paint1_linear)"/>
<defs>
<linearGradient id="paint0_linear" x1="24" y1="7.5" x2="24.0002" y2="61.6038" gradientUnits="userSpaceOnUse">
<stop offset="0.0759424" stop-color="#E480E5"/>
<stop offset="0.234217" stop-color="#E480E5"/>
<stop offset="0.663437" stop-color="#9349DD"/>
<stop offset="0.781473" stop-color="#9349DD"/>
</linearGradient>
<linearGradient id="paint1_linear" x1="24" y1="16.014" x2="24" y2="38.7387" gradientUnits="userSpaceOnUse">
<stop offset="0.0759424" stop-color="#E480E5"/>
<stop offset="0.234217" stop-color="#E480E5"/>
<stop offset="0.663437" stop-color="#9349DD"/>
<stop offset="0.781473" stop-color="#9349DD"/>
</linearGradient>
</defs>
</svg>
