<svg width="25" height="24" viewBox="0 0 25 24" fill="none" xmlns="http://www.w3.org/2000/svg">
<path fill-rule="evenodd" clip-rule="evenodd" d="M12.3095 1.13833e-06C9.38676 -0.00125548 6.55904 1.03793 4.33267 2.93148C2.10629 4.82502 0.626664 7.44926 0.158739 10.3343C-0.309185 13.2193 0.265152 16.1767 1.77891 18.6768C3.29266 21.177 5.64697 23.0567 8.42025 23.9792C9.03454 24.0921 9.26027 23.7128 9.26027 23.3872C9.26027 23.093 9.24916 22.3214 9.24176 21.2945C5.82065 22.0365 5.0972 19.6441 5.0972 19.6441C4.53843 18.2231 3.73172 17.8438 3.73172 17.8438C2.61417 17.0815 3.81683 17.0963 3.81683 17.0963C5.05095 17.1833 5.70039 18.3637 5.70039 18.3637C6.79943 20.2454 8.58122 19.7015 9.28247 19.3869C9.39348 18.5913 9.71173 18.0492 10.0633 17.742C7.33046 17.4312 4.45887 16.3766 4.45887 11.6603C4.45887 10.317 4.93993 9.2198 5.72629 8.35943C5.59862 8.04859 5.17676 6.79782 5.84656 5.10299C5.84656 5.10299 6.87899 4.77179 9.22881 6.36301C10.2094 6.09102 11.2641 5.95595 12.3095 5.9504C13.35 5.95186 14.3859 6.09059 15.3901 6.36301C17.74 4.77179 18.7705 5.10484 18.7705 5.10484C19.4422 6.79782 19.0203 8.04674 18.8927 8.35943C19.6827 9.2198 20.1582 10.317 20.1582 11.6603C20.1582 16.3877 17.2811 17.4275 14.5409 17.7328C14.9812 18.1121 15.3735 18.8633 15.3735 20.0123C15.3735 21.6553 15.3605 22.982 15.3605 23.3853C15.3605 23.7147 15.5826 24.0977 16.2061 23.9774C18.9742 23.0494 21.3223 21.1676 22.831 18.6682C24.3397 16.1687 24.9107 13.2143 24.4422 10.3327C23.9737 7.451 22.4961 4.82972 20.2732 2.93697C18.0504 1.04422 15.2271 0.0032609 12.3076 1.13833e-06H12.3095Z" fill="white"/>
</svg>
