<svg width="24" height="22" viewBox="0 0 24 22" fill="none" xmlns="http://www.w3.org/2000/svg">
<g clip-path="url(#clip0)">
<path d="M11.682 6.17753L3.99989 12.5046V19.3334C3.99989 19.5102 4.07013 19.6797 4.19515 19.8048C4.32018 19.9298 4.48975 20 4.66656 20L9.33572 19.9879C9.51196 19.9871 9.68067 19.9164 9.80498 19.7915C9.92928 19.6666 9.99906 19.4975 9.99906 19.3213V15.3334C9.99906 15.1566 10.0693 14.987 10.1943 14.862C10.3193 14.7369 10.4889 14.6667 10.6657 14.6667H13.3324C13.5092 14.6667 13.6788 14.7369 13.8038 14.862C13.9288 14.987 13.9991 15.1566 13.9991 15.3334V19.3184C13.9988 19.4061 14.0158 19.493 14.0492 19.5741C14.0826 19.6553 14.1316 19.729 14.1936 19.7911C14.2555 19.8532 14.3291 19.9025 14.4101 19.9362C14.4911 19.9698 14.578 19.9871 14.6657 19.9871L19.3332 20C19.51 20 19.6796 19.9298 19.8046 19.8048C19.9297 19.6797 19.9999 19.5102 19.9999 19.3334V12.5L12.3195 6.17753C12.2292 6.10475 12.1167 6.06506 12.0007 6.06506C11.8847 6.06506 11.7723 6.10475 11.682 6.17753V6.17753ZM23.8166 10.4779L20.3332 7.6067V1.83545C20.3332 1.70284 20.2805 1.57566 20.1868 1.4819C20.093 1.38813 19.9658 1.33545 19.8332 1.33545H17.4999C17.3673 1.33545 17.2401 1.38813 17.1463 1.4819C17.0526 1.57566 16.9999 1.70284 16.9999 1.83545V4.86087L13.2695 1.7917C12.9115 1.49711 12.4623 1.33604 11.9986 1.33604C11.535 1.33604 11.0858 1.49711 10.7278 1.7917L0.180725 10.4779C0.130095 10.5198 0.0882067 10.5712 0.0574534 10.6293C0.0267 10.6873 0.00768456 10.7508 0.00149348 10.8162C-0.00469761 10.8816 0.00205702 10.9476 0.0213714 11.0104C0.0406858 11.0731 0.0721814 11.1315 0.114059 11.1821L1.17656 12.4738C1.21832 12.5246 1.26969 12.5666 1.32772 12.5975C1.38576 12.6284 1.44932 12.6476 1.51476 12.6539C1.58021 12.6602 1.64626 12.6535 1.70913 12.6343C1.77199 12.615 1.83045 12.5836 1.88114 12.5417L11.682 4.4692C11.7723 4.39642 11.8847 4.35673 12.0007 4.35673C12.1167 4.35673 12.2292 4.39642 12.3195 4.4692L22.1207 12.5417C22.1713 12.5836 22.2297 12.6151 22.2925 12.6344C22.3553 12.6537 22.4212 12.6605 22.4866 12.6543C22.552 12.6481 22.6155 12.6291 22.6736 12.5983C22.7316 12.5676 22.783 12.5257 22.8249 12.475L23.8874 11.1834C23.9292 11.1325 23.9606 11.0738 23.9797 11.0107C23.9988 10.9477 24.0052 10.8815 23.9986 10.8159C23.992 10.7504 23.9726 10.6868 23.9413 10.6288C23.9101 10.5708 23.8677 10.5195 23.8166 10.4779V10.4779Z" fill="white"/>
</g>
<defs>
<clipPath id="clip0">
<rect width="24" height="21.3333" fill="white"/>
</clipPath>
</defs>
</svg>
