<svg width="24" height="20" viewBox="0 0 24 20" fill="none" xmlns="http://www.w3.org/2000/svg">
<g clip-path="url(#clip0)">
<path d="M24 2.26248C23.1169 2.6462 22.1679 2.90554 21.1719 3.02221C22.1887 2.42508 22.9693 1.4795 23.3369 0.352857C22.3704 0.91488 21.3129 1.31086 20.2103 1.52369C19.312 0.586013 18.0324 0 16.6162 0C13.8968 0 11.6921 2.16032 11.6921 4.8248C11.6921 5.20302 11.7357 5.57121 11.8196 5.92444C7.72744 5.72316 4.09931 3.80233 1.67072 0.8832C1.24697 1.5958 1.00416 2.42471 1.00416 3.30883C1.00416 4.98281 1.8735 6.45956 3.19462 7.32485C2.4127 7.30085 1.64798 7.0939 0.964313 6.72129C0.964031 6.7415 0.964031 6.76171 0.964031 6.78201C0.964031 9.11972 2.66128 11.0699 4.91372 11.5131C4.18864 11.7063 3.42809 11.7346 2.69016 11.5958C3.31669 13.5127 5.13516 14.9076 7.28972 14.9466C5.60456 16.2406 3.48141 17.012 1.17459 17.012C0.777094 17.012 0.385219 16.9892 0 16.9446C2.17903 18.3136 4.76719 19.1124 7.54781 19.1124C16.6047 19.1124 21.5573 11.7602 21.5573 5.38436C21.5573 5.17509 21.5526 4.96701 21.543 4.76013C22.507 4.07728 23.339 3.23149 24 2.26248Z" fill="#55ACEE"/>
</g>
<defs>
<clipPath id="clip0">
<rect width="24" height="19.2" fill="white"/>
</clipPath>
</defs>
</svg>
