<svg width="78" height="92" viewBox="0 0 78 92" fill="none" xmlns="http://www.w3.org/2000/svg">
<g clip-path="url(#clip0)">
<path d="M66.1572 7.16109C61.9124 2.32286 54.2393 0.248596 44.423 0.248596H15.9335C14.9622 0.248632 14.0229 0.595131 13.2843 1.2258C12.5457 1.85646 12.0563 2.72993 11.904 3.68915L0.0415256 78.9241C-0.194262 80.4077 0.954519 81.7512 2.4582 81.7512H20.0467L24.4639 53.7335L24.3268 54.6109C24.6415 52.6304 26.3352 51.1697 28.341 51.1697H36.699C53.1182 51.1697 65.9748 44.5006 69.7303 25.2083C69.8418 24.6377 69.9384 24.0824 70.0219 23.5398C69.5478 23.2888 69.5478 23.2888 70.0219 23.5398C71.1402 16.4092 70.0142 11.5555 66.1572 7.16109Z" fill="#27346A"/>
<path d="M31.1939 20.9711C31.6747 20.7422 32.2006 20.6235 32.7332 20.6239H55.0685C57.7133 20.6239 60.1803 20.796 62.4346 21.1588C63.0654 21.2594 63.6929 21.3795 64.3163 21.5189C65.1999 21.7138 66.0732 21.9525 66.9331 22.2339C68.0414 22.604 69.0735 23.035 70.0221 23.5398C71.1402 16.4065 70.0142 11.5555 66.1572 7.16109C61.91 2.32286 54.2393 0.248596 44.423 0.248596H15.931C13.925 0.248596 12.2184 1.70902 11.904 3.68915L0.0415273 78.9214C-0.194261 80.4074 0.954521 81.749 2.45577 81.749H20.0467L29.211 23.6337C29.3011 23.0624 29.5287 22.5217 29.8741 22.0578C30.2195 21.594 30.6724 21.2211 31.1939 20.9711Z" fill="#27346A"/>
<path d="M69.7303 25.2083C65.9748 44.4978 53.1185 51.1697 36.699 51.1697H28.3385C26.3328 51.1697 24.6387 52.6304 24.3271 54.6108L18.8318 89.4474C18.6265 90.7458 19.6305 91.9223 20.9441 91.9223H35.7707C36.6201 91.9221 37.4414 91.6188 38.0871 91.0671C38.7328 90.5154 39.1605 89.7514 39.2932 88.9125L39.4376 88.157L42.2321 70.4467L42.4121 69.4679C42.5448 68.6291 42.9725 67.8651 43.6181 67.3134C44.2637 66.7617 45.085 66.4584 45.9343 66.4581H48.1533C62.5159 66.4581 73.7622 60.6231 77.0486 43.7475C78.4204 36.6952 77.7106 30.8072 74.0817 26.6715C72.9811 25.4188 71.6142 24.3842 70.0219 23.5398C69.9356 24.0851 69.8421 24.6377 69.7303 25.2083Z" fill="#2790C3"/>
<path d="M66.0913 21.9728C65.5057 21.8018 64.9146 21.6504 64.3189 21.5189C63.6952 21.3817 63.0677 21.2625 62.4372 21.1612C60.1805 20.796 57.7154 20.6235 55.0681 20.6235H32.7355C32.2026 20.6223 31.6762 20.742 31.1962 20.9736C30.6741 21.2228 30.2207 21.5955 29.8751 22.0594C29.5296 22.5234 29.3023 23.0645 29.213 23.6361L24.4662 53.7335L24.3291 54.6108C24.6414 52.6304 26.3351 51.1697 28.3412 51.1697H36.7016C53.1208 51.1697 65.9771 44.5006 69.7326 25.2083C69.8444 24.6377 69.9383 24.0848 70.0245 23.5398C69.0734 23.0378 68.044 22.604 66.9355 22.2363C66.6557 22.1436 66.3744 22.0557 66.0916 21.9728" fill="#1F264F"/>
</g>
<defs>
<clipPath id="clip0">
<rect width="77.9868" height="92" fill="white"/>
</clipPath>
</defs>
</svg>
