<svg width="28" height="28" viewBox="0 0 28 28" fill="none" xmlns="http://www.w3.org/2000/svg">
<path d="M15.0916 12.35C14.4316 12.185 13.7716 11.855 13.2766 11.36C12.7816 11.195 12.6166 10.7 12.6166 10.37C12.6166 10.04 12.7816 9.54505 13.1116 9.38005C13.6066 9.05005 14.1016 8.72005 14.5966 8.88505C15.5866 8.88505 16.4116 9.38005 16.9066 10.04L18.3916 8.06005C17.8966 7.56505 17.4016 7.23505 16.9066 6.90505C16.4116 6.57505 15.7516 6.41005 15.0916 6.41005V4.10005H13.1116V6.41005C12.2866 6.57505 11.4616 7.07005 10.8016 7.73005C10.1416 8.55505 9.64661 9.54505 9.81161 10.535C9.81161 11.525 10.1416 12.515 10.8016 13.175C11.6266 14 12.7816 14.4951 13.7716 14.9901C14.2666 15.1551 14.9266 15.4851 15.4216 15.8151C15.7516 16.1451 15.9166 16.64 15.9166 17.135C15.9166 17.63 15.7516 18.125 15.4216 18.6201C14.9266 19.115 14.2666 19.2801 13.7716 19.2801C13.1116 19.2801 12.2866 19.115 11.7916 18.6201C11.2966 18.2901 10.8016 17.795 10.4716 17.3L8.82161 19.1151C9.31661 19.7751 9.81161 20.2701 10.4716 20.7651C11.2966 21.26 12.2866 21.7551 13.2766 21.7551V23.9001H15.0916V21.4251C16.0816 21.26 16.9066 20.765 17.5666 20.105C18.3916 19.2801 18.8866 17.96 18.8866 16.805C18.8866 15.815 18.5566 14.66 17.7316 14C16.9066 13.175 16.0816 12.68 15.0916 12.35ZM14.1016 0.800049C6.84161 0.800049 0.901611 6.74005 0.901611 14C0.901611 21.26 6.84161 27.2001 14.1016 27.2001C21.3616 27.2001 27.3016 21.26 27.3016 14C27.3016 6.74005 21.3616 0.800049 14.1016 0.800049ZM14.1016 25.385C7.83161 25.385 2.71661 20.2701 2.71661 14C2.71661 7.73005 7.83161 2.61505 14.1016 2.61505C20.3716 2.61505 25.4866 7.73005 25.4866 14C25.4866 20.2701 20.3716 25.385 14.1016 25.385Z" fill="black"/>
</svg>
