<svg width="48" height="48" viewBox="0 0 48 48" fill="none" xmlns="http://www.w3.org/2000/svg">
<path d="M43.1962 12.0645C42.9817 11.8088 42.6247 11.727 42.3187 11.8612C41.8582 12.0645 41.385 12.2453 40.9005 12.4005C41.5185 11.6243 41.997 10.7385 42.306 9.78225C42.4012 9.48525 42.3045 9.162 42.0615 8.967C41.8185 8.77125 41.481 8.74575 41.2132 8.90475C39.8805 9.6855 38.4592 10.2457 36.9825 10.572C35.433 9.0915 33.3367 8.25 31.1662 8.25C26.5395 8.25 22.7745 11.9835 22.7745 16.5728C22.7745 16.8758 22.791 17.1803 22.8247 17.4833C17.2672 16.9545 12.108 14.226 8.55446 9.906C8.39921 9.717 8.16596 9.61725 7.91696 9.6345C7.67321 9.65325 7.45346 9.78975 7.32896 10.0005C6.58421 11.2597 6.18971 12.7102 6.18971 14.1953C6.18971 16.0305 6.79496 17.7803 7.87496 19.2052C7.65596 19.113 7.44071 19.0103 7.23071 18.8962C6.99746 18.771 6.71621 18.7755 6.48971 18.912C6.26246 19.0477 6.12371 19.2923 6.12371 19.5563V19.6455C6.12371 22.4265 7.52471 24.9503 9.71321 26.4735C9.70421 26.472 9.69521 26.4697 9.68621 26.4683C9.42371 26.4195 9.16196 26.5147 8.98871 26.7135C8.81546 26.9123 8.75921 27.1868 8.84021 27.438C9.72671 30.174 11.952 32.2162 14.667 32.937C12.4147 34.2653 9.86621 34.9597 7.19921 34.9597C6.60971 34.9597 6.02696 34.9253 5.46821 34.857C5.11796 34.8128 4.78871 35.0205 4.67096 35.3498C4.55321 35.6798 4.67996 36.048 4.97621 36.2355C8.60846 38.535 12.798 39.75 17.0925 39.75C31.1715 39.75 39.5842 28.4107 39.5842 17.448C39.5842 17.2448 39.5805 17.0423 39.5737 16.8405C41.004 15.7733 42.2377 14.4713 43.2457 12.9637C43.431 12.6862 43.4107 12.3203 43.1962 12.0645ZM38.3752 15.8572C38.166 16.005 38.0467 16.2495 38.0587 16.506C38.0737 16.8172 38.0842 17.1315 38.0842 17.448C38.0842 27.6728 30.2325 38.25 17.0925 38.25C14.106 38.25 11.172 37.62 8.46821 36.411C11.6377 36.1702 14.6167 35.0235 17.1495 33.06C17.4007 32.865 17.502 32.5335 17.4015 32.232C17.301 31.9305 17.022 31.7243 16.704 31.7175C14.1682 31.6688 11.901 30.2535 10.743 28.0913C11.5792 28.1198 12.3952 28.017 13.2 27.7965C13.5352 27.7043 13.7632 27.3938 13.7512 27.0465C13.7385 26.6985 13.4887 26.406 13.1482 26.3377C10.3185 25.7738 8.17421 23.508 7.71521 20.751C8.55671 21.0532 9.43796 21.2242 10.3162 21.2512C10.6605 21.2595 10.9522 21.048 11.0535 20.7292C11.1555 20.4097 11.0332 20.0618 10.7542 19.8765C8.83571 18.603 7.69121 16.479 7.69121 14.1953C7.69121 13.344 7.84871 12.5078 8.15171 11.73C12.141 16.1003 17.7397 18.7507 23.6872 19.05C23.9332 19.0665 24.15 18.963 24.3 18.7822C24.4515 18.6015 24.5085 18.36 24.4552 18.1312C24.3352 17.6175 24.2752 17.0932 24.2752 16.5735C24.2752 12.8115 27.3667 9.75075 31.167 9.75075C33.0697 9.75075 34.9012 10.536 36.192 11.904C36.3682 12.09 36.6277 12.1732 36.8797 12.126C37.9185 11.9257 38.934 11.6227 39.9157 11.2192C39.369 11.9745 38.667 12.618 37.8465 13.1047C37.5412 13.2862 37.4047 13.656 37.5195 13.9927C37.6342 14.328 37.9672 14.5403 38.3205 14.4945C39.0345 14.4068 39.735 14.2755 40.4182 14.1008C39.795 14.7495 39.1125 15.3367 38.3752 15.8572Z" fill="url(#paint0_linear)"/>
<path d="M23.0791 34.3395L23.5449 35.7645C28.8871 34.02 33.1629 29.829 35.2764 24.267L33.8746 23.7338C32.7271 26.7533 29.7999 32.1443 23.0791 34.3395Z" fill="url(#paint1_linear)"/>
<path d="M31.5 16.5C32.3284 16.5 33 15.8284 33 15C33 14.1716 32.3284 13.5 31.5 13.5C30.6716 13.5 30 14.1716 30 15C30 15.8284 30.6716 16.5 31.5 16.5Z" fill="url(#paint2_linear)"/>
<defs>
<linearGradient id="paint0_linear" x1="23.9997" y1="8.25" x2="23.9998" y2="55.5908" gradientUnits="userSpaceOnUse">
<stop offset="0.0759424" stop-color="#E480E5"/>
<stop offset="0.234217" stop-color="#E480E5"/>
<stop offset="0.663437" stop-color="#9349DD"/>
<stop offset="0.781473" stop-color="#9349DD"/>
</linearGradient>
<linearGradient id="paint1_linear" x1="29.1777" y1="23.7338" x2="29.1778" y2="41.8146" gradientUnits="userSpaceOnUse">
<stop offset="0.0759424" stop-color="#E480E5"/>
<stop offset="0.234217" stop-color="#E480E5"/>
<stop offset="0.663437" stop-color="#9349DD"/>
<stop offset="0.781473" stop-color="#9349DD"/>
</linearGradient>
<linearGradient id="paint2_linear" x1="31.5" y1="13.5" x2="31.5" y2="18.0087" gradientUnits="userSpaceOnUse">
<stop offset="0.0759424" stop-color="#E480E5"/>
<stop offset="0.234217" stop-color="#E480E5"/>
<stop offset="0.663437" stop-color="#9349DD"/>
<stop offset="0.781473" stop-color="#9349DD"/>
</linearGradient>
</defs>
</svg>
