<svg width="24" height="18" viewBox="0 0 24 18" fill="none" xmlns="http://www.w3.org/2000/svg">
<path d="M23.4697 2.8075C23.3321 2.26486 23.0635 1.77014 22.6909 1.37263C22.3182 0.975112 21.8544 0.688661 21.3457 0.5418C19.4833 0 11.9876 0 11.9876 0C11.9876 0 4.49152 0.0164 2.62909 0.5582C2.12035 0.70507 1.65656 0.991536 1.28391 1.38907C0.911253 1.78661 0.642732 2.28134 0.505086 2.824C-0.0582574 6.3538 -0.276789 11.7324 0.520555 15.121C0.658215 15.6636 0.926742 16.1584 1.2994 16.5559C1.67205 16.9534 2.13583 17.2398 2.64456 17.3867C4.50699 17.9285 12.0029 17.9285 12.0029 17.9285C12.0029 17.9285 19.4986 17.9285 21.361 17.3867C21.8697 17.2399 22.3335 16.9534 22.7062 16.5559C23.0789 16.1584 23.3474 15.6637 23.4851 15.121C24.0793 11.5862 24.2624 6.211 23.4697 2.8076V2.8075Z" fill="#FF0000"/>
<path d="M9.60181 12.806L15.8201 8.96424L9.6019 5.12244L9.60181 12.806Z" fill="white"/>
</svg>
